<mxfile host="app.diagrams.net" modified="2023-09-04T19:40:16.676Z" agent="Mozilla/5.0 (Windows NT 10.0; Win64; x64; rv:109.0) Gecko/20100101 Firefox/117.0" etag="QIf1DIR0_JPsSUmK9uqh" version="21.7.2" type="device">
  <diagram id="C5RBs43oDa-KdzZeNtuy" name="Page-1">
    <mxGraphModel dx="1313" dy="673" grid="1" gridSize="10" guides="1" tooltips="1" connect="1" arrows="1" fold="1" page="1" pageScale="1" pageWidth="827" pageHeight="1169" math="0" shadow="0">
      <root>
        <mxCell id="WIyWlLk6GJQsqaUBKTNV-0" />
        <mxCell id="WIyWlLk6GJQsqaUBKTNV-1" parent="WIyWlLk6GJQsqaUBKTNV-0" />
        <mxCell id="b4OlWMou4aagVw3REBrg-2" value="" style="edgeStyle=orthogonalEdgeStyle;rounded=0;orthogonalLoop=1;jettySize=auto;html=1;" edge="1" parent="WIyWlLk6GJQsqaUBKTNV-1" source="b4OlWMou4aagVw3REBrg-0" target="b4OlWMou4aagVw3REBrg-1">
          <mxGeometry relative="1" as="geometry" />
        </mxCell>
        <mxCell id="b4OlWMou4aagVw3REBrg-0" value="Cognito" style="rounded=0;whiteSpace=wrap;html=1;" vertex="1" parent="WIyWlLk6GJQsqaUBKTNV-1">
          <mxGeometry x="330" y="100" width="120" height="60" as="geometry" />
        </mxCell>
        <mxCell id="b4OlWMou4aagVw3REBrg-6" value="" style="edgeStyle=orthogonalEdgeStyle;rounded=0;orthogonalLoop=1;jettySize=auto;html=1;" edge="1" parent="WIyWlLk6GJQsqaUBKTNV-1" source="b4OlWMou4aagVw3REBrg-1" target="b4OlWMou4aagVw3REBrg-3">
          <mxGeometry relative="1" as="geometry" />
        </mxCell>
        <mxCell id="b4OlWMou4aagVw3REBrg-1" value="Api Gateway" style="rounded=0;whiteSpace=wrap;html=1;" vertex="1" parent="WIyWlLk6GJQsqaUBKTNV-1">
          <mxGeometry x="330" y="240" width="120" height="60" as="geometry" />
        </mxCell>
        <mxCell id="b4OlWMou4aagVw3REBrg-8" value="" style="edgeStyle=orthogonalEdgeStyle;rounded=0;orthogonalLoop=1;jettySize=auto;html=1;" edge="1" parent="WIyWlLk6GJQsqaUBKTNV-1" source="b4OlWMou4aagVw3REBrg-3" target="b4OlWMou4aagVw3REBrg-7">
          <mxGeometry relative="1" as="geometry" />
        </mxCell>
        <mxCell id="b4OlWMou4aagVw3REBrg-3" value="Lambda&lt;br&gt;Save to s3" style="whiteSpace=wrap;html=1;rounded=0;" vertex="1" parent="WIyWlLk6GJQsqaUBKTNV-1">
          <mxGeometry x="530" y="240" width="120" height="60" as="geometry" />
        </mxCell>
        <mxCell id="b4OlWMou4aagVw3REBrg-10" style="edgeStyle=orthogonalEdgeStyle;rounded=0;orthogonalLoop=1;jettySize=auto;html=1;entryX=0;entryY=0.5;entryDx=0;entryDy=0;" edge="1" parent="WIyWlLk6GJQsqaUBKTNV-1" source="b4OlWMou4aagVw3REBrg-7" target="b4OlWMou4aagVw3REBrg-9">
          <mxGeometry relative="1" as="geometry" />
        </mxCell>
        <mxCell id="b4OlWMou4aagVw3REBrg-11" value="Trigger" style="edgeLabel;html=1;align=center;verticalAlign=middle;resizable=0;points=[];" vertex="1" connectable="0" parent="b4OlWMou4aagVw3REBrg-10">
          <mxGeometry x="0.0118" y="-2" relative="1" as="geometry">
            <mxPoint as="offset" />
          </mxGeometry>
        </mxCell>
        <mxCell id="b4OlWMou4aagVw3REBrg-7" value="FileTable" style="shape=cylinder3;whiteSpace=wrap;html=1;boundedLbl=1;backgroundOutline=1;size=15;" vertex="1" parent="WIyWlLk6GJQsqaUBKTNV-1">
          <mxGeometry x="720" y="230" width="60" height="80" as="geometry" />
        </mxCell>
        <mxCell id="b4OlWMou4aagVw3REBrg-14" style="edgeStyle=orthogonalEdgeStyle;rounded=0;orthogonalLoop=1;jettySize=auto;html=1;entryX=0.5;entryY=0;entryDx=0;entryDy=0;" edge="1" parent="WIyWlLk6GJQsqaUBKTNV-1" source="b4OlWMou4aagVw3REBrg-9" target="b4OlWMou4aagVw3REBrg-12">
          <mxGeometry relative="1" as="geometry" />
        </mxCell>
        <mxCell id="b4OlWMou4aagVw3REBrg-9" value="lambda&lt;br&gt;Create EC2" style="rounded=0;whiteSpace=wrap;html=1;" vertex="1" parent="WIyWlLk6GJQsqaUBKTNV-1">
          <mxGeometry x="840" y="130" width="120" height="60" as="geometry" />
        </mxCell>
        <mxCell id="b4OlWMou4aagVw3REBrg-12" value="" style="swimlane;startSize=0;" vertex="1" parent="WIyWlLk6GJQsqaUBKTNV-1">
          <mxGeometry x="950" y="290" width="200" height="200" as="geometry" />
        </mxCell>
        <mxCell id="b4OlWMou4aagVw3REBrg-16" value="Run script" style="rounded=0;whiteSpace=wrap;html=1;" vertex="1" parent="b4OlWMou4aagVw3REBrg-12">
          <mxGeometry x="40" y="70" width="120" height="60" as="geometry" />
        </mxCell>
        <mxCell id="b4OlWMou4aagVw3REBrg-17" value="EC2" style="text;html=1;align=center;verticalAlign=middle;resizable=0;points=[];autosize=1;strokeColor=none;fillColor=none;" vertex="1" parent="b4OlWMou4aagVw3REBrg-12">
          <mxGeometry x="75" y="28" width="50" height="30" as="geometry" />
        </mxCell>
        <mxCell id="b4OlWMou4aagVw3REBrg-19" value="" style="edgeStyle=orthogonalEdgeStyle;rounded=0;orthogonalLoop=1;jettySize=auto;html=1;" edge="1" parent="WIyWlLk6GJQsqaUBKTNV-1" source="b4OlWMou4aagVw3REBrg-18" target="b4OlWMou4aagVw3REBrg-1">
          <mxGeometry relative="1" as="geometry" />
        </mxCell>
        <mxCell id="b4OlWMou4aagVw3REBrg-18" value="Client" style="shape=umlActor;verticalLabelPosition=bottom;verticalAlign=top;html=1;outlineConnect=0;" vertex="1" parent="WIyWlLk6GJQsqaUBKTNV-1">
          <mxGeometry x="200" y="240" width="30" height="60" as="geometry" />
        </mxCell>
      </root>
    </mxGraphModel>
  </diagram>
</mxfile>
